<?xml version="1.0" standalone="no"?>
<!DOCTYPE svg PUBLIC "-//W3C//DTD SVG 20010904//EN"
 "http://www.w3.org/TR/2001/REC-SVG-20010904/DTD/svg10.dtd">
<svg version="1.0" xmlns="http://www.w3.org/2000/svg"
 width="260.000000pt" height="216.000000pt" viewBox="0 0 260.000000 216.000000"
 preserveAspectRatio="xMidYMid meet">
<metadata>
Created by potrace 1.10, written by Peter Selinger 2001-2011
</metadata>
<g transform="translate(0.000000,216.000000) scale(0.100000,-0.100000)"
fill="#000000" stroke="none">
<path d="M1145 1646 c-77 -35 -214 -96 -305 -136 -91 -40 -171 -77 -177 -82
-20 -16 -15 -55 9 -72 20 -14 97 -16 634 -16 589 0 612 1 628 19 10 11 16 30
14 43 -3 24 -25 38 -138 87 -30 13 -98 43 -150 67 -232 104 -351 154 -362 153
-7 0 -76 -29 -153 -63z m233 -12 c129 -59 135 -61 170 -63 7 -1 10 -5 7 -11
-6 -9 10 -14 42 -13 7 1 10 -3 7 -8 -3 -5 4 -9 15 -9 11 0 22 -4 25 -9 3 -4
55 -30 115 -56 131 -56 147 -70 94 -78 -106 -16 -1153 -5 -1153 12 0 4 22 15
49 26 28 10 47 23 44 29 -3 5 -1 6 5 2 6 -4 49 12 96 34 47 22 88 40 90 40 3
0 29 11 58 24 29 13 78 34 108 47 30 13 68 31 85 40 44 24 79 22 143 -7z"/>
<path d="M752 1288 c-15 -15 -15 -61 0 -76 7 -7 25 -12 40 -12 l28 0 0 -241
c0 -219 -1 -241 -16 -235 -46 18 -86 -60 -46 -90 24 -19 1072 -20 1090 -2 7 7
12 24 12 40 0 32 -37 62 -64 52 -15 -6 -16 16 -16 235 l0 241 28 0 c35 0 52
16 52 50 0 14 -5 31 -12 38 -17 17 -1079 17 -1096 0z m543 -30 c361 2 495 -1
495 -9 0 -6 -11 -24 -25 -41 l-25 -30 0 -218 0 -219 30 -34 c17 -19 30 -37 30
-41 0 -3 -227 -6 -505 -6 -278 0 -505 3 -505 6 0 2 16 18 35 35 l35 31 0 227
0 227 -35 34 c-19 19 -35 39 -34 44 0 7 2 7 5 1 3 -7 176 -9 499 -7z"/>
<path d="M910 1211 l-29 -28 0 -226 1 -225 25 -23 c20 -20 37 -25 102 -27 71
-4 80 -2 107 21 l29 25 0 232 0 232 -28 24 c-24 21 -38 24 -103 24 -70 0 -78
-2 -104 -29z m191 -249 l1 -234 -88 0 -89 0 -3 236 -2 237 90 -3 90 -3 1 -233z"/>
<path d="M1215 1228 c-44 -23 -45 -32 -45 -266 l0 -224 29 -29 c27 -27 35 -29
101 -29 66 0 74 2 101 30 17 16 28 34 24 40 -3 5 -3 10 2 10 4 0 7 96 5 212
l-3 213 -26 28 c-24 24 -33 27 -97 27 -39 0 -80 -6 -91 -12z m175 -265 l0
-238 -90 0 -90 0 0 238 0 237 90 0 90 0 0 -237z"/>
<path d="M1486 1218 l-27 -23 -1 -225 c0 -124 3 -233 7 -243 12 -30 60 -47
129 -47 54 0 70 4 93 24 l28 24 3 225 3 225 -25 28 c-22 26 -31 29 -103 32
-72 4 -82 2 -107 -20z m192 -254 l-3 -236 -87 0 c-49 0 -88 3 -88 6 0 3 0 110
0 236 l0 230 90 0 90 0 -2 -236z"/>
<path d="M687 562 c-23 -26 -21 -58 5 -76 20 -14 94 -16 608 -16 514 0 588 2
608 16 27 18 29 55 4 77 -17 15 -74 17 -614 17 -564 0 -596 -1 -611 -18z
m1163 -23 c-12 -9 -10 -10 8 -6 15 4 22 1 19 -6 -2 -7 -19 -13 -38 -13 -118
-5 -1108 11 -1101 18 4 4 255 9 557 11 303 1 555 3 560 4 6 2 3 -2 -5 -8z"/>
</g>
</svg>
