<?xml version="1.0" encoding="UTF-8"?>
<svg xmlns="http://www.w3.org/2000/svg" xmlns:xlink="http://www.w3.org/1999/xlink" width="144px" height="144px" viewBox="0 0 144 144" version="1.1">
<g id="surface1">
<path style=" stroke:none;fill-rule:nonzero;fill:rgb(0%,0%,0%);fill-opacity:1;" d="M 60.597656 7.046875 C 46.570312 10.632812 34.976562 19.792969 28.761719 32.347656 C 24.726562 40.546875 23.699219 45.097656 23.699219 54.960938 C 23.699219 63.992188 24.535156 69.566406 27.351562 78.46875 C 30.941406 90.0625 39.78125 105.375 49.515625 116.96875 C 54.960938 123.4375 68.667969 136.890625 70.910156 137.914062 C 72.128906 138.425781 72.769531 138.171875 75.203125 136.25 C 89.230469 124.71875 104.285156 105.949219 111.585938 90.898438 C 117.992188 77.765625 120.746094 65.464844 120.234375 52.847656 C 119.660156 39.203125 115.878906 30.171875 106.71875 20.625 C 97.496094 11.019531 87.308594 6.597656 73.34375 6.085938 C 67.066406 5.828125 64.699219 6.019531 60.597656 7.046875 Z M 83.980469 9.929688 C 93.011719 12.300781 102.105469 18.320312 108 25.816406 C 114.726562 34.398438 117.863281 43.6875 117.863281 54.769531 C 117.863281 74.371094 109.984375 93.585938 93.714844 113.699219 C 86.925781 122.15625 73.601562 135.160156 71.808594 135.160156 C 70.78125 135.160156 58.738281 123.820312 54.128906 118.503906 C 40.675781 103.066406 32.09375 87.695312 28.183594 72.0625 C 26.519531 65.464844 26.261719 63.417969 26.261719 55.28125 C 26.261719 46.632812 26.390625 45.609375 28.183594 40.164062 C 33.628906 24.019531 45.929688 13.066406 62.777344 9.289062 C 67.898438 8.136719 78.214844 8.457031 83.980469 9.929688 Z M 83.980469 9.929688 "/>
<path style=" stroke:none;fill-rule:nonzero;fill:rgb(0%,0%,0%);fill-opacity:1;" d="M 60.917969 14.476562 C 49.835938 17.421875 40.101562 25.558594 34.910156 36.191406 C 31.898438 42.277344 30.746094 47.210938 30.746094 54.0625 C 30.746094 71.359375 42.339844 87.179688 59.125 92.625 C 65.722656 94.804688 75.585938 95.058594 81.671875 93.265625 C 95.445312 89.167969 106.976562 77.574219 110.5625 64.058594 C 112.292969 57.585938 112.035156 48.363281 109.921875 41.894531 C 105.628906 28.570312 94.421875 17.871094 81.03125 14.414062 C 76.292969 13.195312 65.59375 13.195312 60.917969 14.476562 Z M 83.53125 17.808594 C 95.507812 22.164062 104.347656 31.644531 108 43.878906 C 109.792969 49.773438 109.601562 59.253906 107.617188 65.273438 C 104.667969 74.5625 97.621094 82.890625 89.039062 87.375 C 82.761719 90.703125 78.46875 91.664062 70.976562 91.664062 C 60.40625 91.664062 52.71875 88.527344 44.96875 81.097656 C 37.023438 73.539062 33.308594 64.699219 33.308594 53.679688 C 33.308594 48.105469 33.628906 46.25 35.101562 41.894531 C 37.34375 35.550781 40.613281 30.554688 45.542969 26.007812 C 50.285156 21.585938 53.808594 19.472656 59.765625 17.550781 C 63.800781 16.207031 65.339844 16.015625 72.0625 16.207031 C 77.957031 16.398438 80.648438 16.71875 83.53125 17.808594 Z M 83.53125 17.808594 "/>
<path style=" stroke:none;fill-rule:nonzero;fill:rgb(0%,0%,0%);fill-opacity:1;" d="M 61.175781 34.976562 L 51.566406 39.011719 L 92.5625 39.011719 L 82.632812 34.910156 C 77.1875 32.667969 72.257812 30.8125 71.742188 30.8125 C 71.230469 30.875 66.492188 32.734375 61.175781 34.976562 Z M 75.585938 34.910156 C 76.675781 35.488281 77.507812 36.0625 77.507812 36.191406 C 77.507812 36.382812 74.820312 36.511719 71.617188 36.511719 L 65.660156 36.449219 L 67.898438 35.230469 C 70.65625 33.757812 73.089844 33.628906 75.585938 34.910156 Z M 75.585938 34.910156 "/>
<path style=" stroke:none;fill-rule:nonzero;fill:rgb(0%,0%,0%);fill-opacity:1;" d="M 50.734375 41.765625 L 50.925781 43.238281 L 93.203125 43.238281 L 93.394531 41.765625 L 93.585938 40.355469 L 50.539062 40.355469 Z M 50.734375 41.765625 "/>
<path style=" stroke:none;fill-rule:nonzero;fill:rgb(0%,0%,0%);fill-opacity:1;" d="M 54.703125 45.03125 C 54.578125 45.480469 54.511719 49.898438 54.578125 54.769531 L 54.769531 63.738281 L 56.882812 63.929688 L 58.933594 64.121094 L 58.933594 44.199219 L 57.011719 44.199219 C 55.921875 44.199219 54.898438 44.582031 54.703125 45.03125 Z M 54.703125 45.03125 "/>
<path style=" stroke:none;fill-rule:nonzero;fill:rgb(0%,0%,0%);fill-opacity:1;" d="M 65.144531 44.582031 C 64.890625 44.839844 64.699219 49.324219 64.699219 54.578125 L 64.699219 64.121094 L 66.8125 63.929688 L 68.859375 63.738281 L 68.859375 44.519531 L 67.261719 44.328125 C 66.363281 44.199219 65.402344 44.328125 65.144531 44.582031 Z M 65.144531 44.582031 "/>
<path style=" stroke:none;fill-rule:nonzero;fill:rgb(0%,0%,0%);fill-opacity:1;" d="M 75.265625 44.96875 C 75.074219 45.480469 75.011719 49.898438 75.074219 54.769531 L 75.265625 63.738281 L 79.109375 63.738281 L 79.109375 44.519531 L 77.316406 44.328125 C 76.292969 44.199219 75.460938 44.457031 75.265625 44.96875 Z M 75.265625 44.96875 "/>
<path style=" stroke:none;fill-rule:nonzero;fill:rgb(0%,0%,0%);fill-opacity:1;" d="M 84.941406 45.160156 C 84.425781 46.503906 84.425781 61.6875 84.941406 63.03125 C 85.195312 63.671875 86.09375 64.058594 87.179688 64.058594 C 89.617188 64.058594 89.742188 63.160156 89.550781 52.847656 L 89.359375 44.519531 L 87.375 44.328125 C 85.964844 44.199219 85.261719 44.457031 84.941406 45.160156 Z M 84.941406 45.160156 "/>
<path style=" stroke:none;fill-rule:nonzero;fill:rgb(0%,0%,0%);fill-opacity:1;" d="M 50.859375 65.273438 C 50.734375 65.402344 50.605469 66.105469 50.605469 66.746094 C 50.605469 67.835938 51.695312 67.898438 72.0625 67.898438 C 93.074219 67.898438 93.523438 67.898438 93.523438 66.621094 C 93.523438 65.914062 93.332031 65.273438 93.074219 65.273438 C 91.664062 65.019531 51.117188 65.082031 50.859375 65.273438 Z M 50.859375 65.273438 "/>
<path style=" stroke:none;fill-rule:nonzero;fill:rgb(0%,0%,0%);fill-opacity:1;" d="M 47.402344 71.421875 L 47.402344 73.664062 L 96.726562 73.664062 L 96.726562 69.179688 L 47.402344 69.179688 Z M 47.402344 71.421875 "/>
</g>
</svg>
