<?xml version="1.0" standalone="no"?>
<!DOCTYPE svg PUBLIC "-//W3C//DTD SVG 20010904//EN"
 "http://www.w3.org/TR/2001/REC-SVG-20010904/DTD/svg10.dtd">
<svg version="1.0" xmlns="http://www.w3.org/2000/svg"
 width="300.000000pt" height="300.000000pt" viewBox="0 0 300.000000 300.000000"
 preserveAspectRatio="xMidYMid meet">
<metadata>
Created by potrace 1.10, written by Peter Selinger 2001-2011
</metadata>
<g transform="translate(0.000000,300.000000) scale(0.100000,-0.100000)"
fill="#000000" stroke="none">
<path d="M1857 2185 c-71 -25 -127 -100 -127 -170 0 -21 -5 -35 -12 -35 -32 0
-90 -23 -118 -47 -64 -54 -90 -160 -55 -227 15 -28 14 -31 -14 -60 -37 -39
-51 -75 -51 -132 0 -101 91 -194 193 -194 9 0 17 -6 17 -14 0 -41 90 -108 167
-124 l38 -8 3 -162 2 -162 -265 0 -265 0 0 65 0 65 39 0 c45 0 59 13 40 36 -9
11 -23 14 -46 11 l-33 -6 0 45 0 44 39 0 c45 0 59 13 40 36 -9 11 -22 14 -46
9 -31 -5 -33 -4 -33 21 0 24 2 26 34 20 36 -7 68 16 49 35 -13 13 -803 13
-816 0 -19 -19 13 -42 49 -35 32 6 34 4 34 -20 0 -25 -2 -26 -33 -21 -24 5
-37 2 -46 -9 -19 -23 -5 -36 40 -36 l39 0 0 -44 0 -45 -33 6 c-23 3 -37 0 -46
-11 -19 -23 -5 -36 40 -36 l39 0 0 -65 0 -64 -77 -3 c-70 -3 -78 -5 -78 -23 0
-20 7 -20 935 -20 928 0 935 0 935 20 0 19 -8 20 -245 23 l-245 2 3 193 3 193
99 99 c55 55 100 105 100 113 0 7 -7 15 -16 19 -11 4 -42 -21 -102 -80 l-87
-87 3 203 3 202 77 77 c72 73 75 79 59 95 -15 16 -20 13 -78 -45 -34 -34 -63
-62 -63 -62 -1 0 -1 57 -1 127 0 121 -1 128 -20 128 -19 0 -20 -8 -23 -240
l-2 -239 -79 78 c-55 54 -84 77 -95 73 -9 -4 -16 -12 -16 -19 0 -8 43 -56 95
-108 l95 -95 0 -127 0 -128 -27 6 c-77 19 -131 63 -142 116 -7 32 -8 33 -58
34 -59 1 -95 21 -123 67 -38 62 -17 152 45 193 30 20 31 33 5 76 -39 64 -17
153 47 195 18 12 46 18 83 18 l55 0 -3 56 c-4 64 12 105 54 138 101 80 251
-18 223 -147 -8 -40 1 -47 63 -47 114 0 175 -114 118 -221 -24 -45 -25 -47 -6
-58 119 -69 102 -224 -29 -269 -29 -10 -41 -21 -46 -42 -13 -48 -57 -82 -141
-109 -10 -3 -18 -15 -18 -26 0 -61 168 22 200 99 7 17 22 32 36 35 32 8 91 62
111 100 26 50 22 124 -10 178 -14 25 -33 48 -42 52 -14 5 -14 9 1 38 21 41 22
124 1 164 -31 59 -114 114 -174 114 -8 0 -13 15 -13 40 0 69 -48 133 -122 164
-45 19 -81 20 -131 1z m-532 -1010 c0 -14 -28 -16 -280 -16 -277 0 -292 2
-279 31 1 3 127 4 281 3 250 -1 278 -3 278 -18z m-2 -108 l0 -37 -276 -3 -277
-2 0 43 0 42 277 -2 276 -3 0 -38z m0 -155 l2 -62 -277 0 -278 0 0 65 0 65
276 -2 276 -3 1 -63z"/>
</g>
</svg>
