<?xml version="1.0" encoding="UTF-8"?>
<svg xmlns="http://www.w3.org/2000/svg" xmlns:xlink="http://www.w3.org/1999/xlink" width="300px" height="56px" viewBox="0 0 102 19" version="1.1">
<g id="surface1">
<path style=" stroke:none;fill-rule:nonzero;fill:rgb(85.09804%,59.607846%,27.058825%);fill-opacity:1;" d="M 4.472656 0.0117188 C 12.015625 0.0117188 19.5625 0.0117188 27.335938 0.0117188 C 27.335938 3.964844 27.335938 7.921875 27.335938 11.996094 C 26.84375 11.996094 26.351562 11.996094 25.84375 11.996094 C 25.679688 12.984375 25.515625 13.976562 25.347656 14.992188 C 24.855469 15.160156 24.363281 15.324219 23.855469 15.492188 C 23.691406 15.824219 23.527344 16.152344 23.359375 16.492188 C 23.03125 16.492188 22.703125 16.492188 22.363281 16.492188 C 22.527344 16.988281 22.691406 17.480469 22.863281 17.992188 C 22.535156 18.320312 22.207031 18.648438 21.867188 18.988281 C 19.433594 18.191406 17.027344 17.355469 14.632812 16.4375 C 12.648438 15.710938 10.640625 15.054688 8.632812 14.394531 C 6.886719 13.820312 5.179688 13.1875 3.480469 12.496094 C 2.945312 12.34375 2.414062 12.1875 1.863281 12.027344 C 1.1875 11.765625 1.1875 11.765625 0.496094 11.496094 C 0.332031 11.003906 0.167969 10.507812 0 10 C 0.492188 9.667969 0.984375 9.339844 1.492188 9 C 1.675781 7.839844 1.84375 6.671875 1.988281 5.503906 C 2.316406 5.175781 2.644531 4.84375 2.980469 4.503906 C 2.980469 3.847656 2.980469 3.1875 2.980469 2.507812 C 3.308594 2.34375 3.636719 2.179688 3.976562 2.007812 C 4.140625 1.347656 4.304688 0.691406 4.472656 0.0117188 Z M 4.472656 0.0117188 "/>
<path style=" stroke:none;fill-rule:nonzero;fill:rgb(77.254903%,44.313726%,17.254902%);fill-opacity:1;" d="M 4.472656 0.0117188 C 12.015625 0.0117188 19.5625 0.0117188 27.335938 0.0117188 C 27.335938 3.964844 27.335938 7.921875 27.335938 11.996094 C 26.84375 11.996094 26.351562 11.996094 25.84375 11.996094 C 25.679688 12.984375 25.515625 13.976562 25.347656 14.992188 C 24.855469 15.160156 24.363281 15.324219 23.855469 15.492188 C 23.691406 15.824219 23.527344 16.152344 23.359375 16.492188 C 23.03125 16.492188 22.703125 16.492188 22.363281 16.492188 C 22.527344 16.988281 22.691406 17.480469 22.863281 17.992188 C 22.535156 18.320312 22.207031 18.648438 21.867188 18.988281 C 19.433594 18.191406 17.027344 17.355469 14.632812 16.4375 C 12.648438 15.710938 10.640625 15.054688 8.632812 14.394531 C 6.886719 13.820312 5.179688 13.1875 3.480469 12.496094 C 2.945312 12.34375 2.414062 12.1875 1.863281 12.027344 C 1.1875 11.765625 1.1875 11.765625 0.496094 11.496094 C 0.332031 11.003906 0.167969 10.507812 0 10 C 0.492188 9.667969 0.984375 9.339844 1.492188 9 C 1.675781 7.839844 1.84375 6.671875 1.988281 5.503906 C 2.316406 5.175781 2.644531 4.84375 2.980469 4.503906 C 2.980469 3.847656 2.980469 3.1875 2.980469 2.507812 C 3.308594 2.34375 3.636719 2.179688 3.976562 2.007812 C 4.140625 1.347656 4.304688 0.691406 4.472656 0.0117188 Z M 4.96875 1.007812 C 4.96875 4.304688 4.96875 7.601562 4.96875 11 C 12.023438 11 19.074219 11 26.339844 11 C 26.339844 7.703125 26.339844 4.40625 26.339844 1.007812 C 19.289062 1.007812 12.234375 1.007812 4.96875 1.007812 Z M 4.96875 1.007812 "/>
<path style=" stroke:none;fill-rule:nonzero;fill:rgb(25.490198%,30.19608%,28.235295%);fill-opacity:1;" d="M 73.058594 2.507812 C 73.550781 2.507812 74.042969 2.507812 74.550781 2.507812 C 74.714844 3.496094 74.878906 4.484375 75.046875 5.503906 C 75.417969 5.011719 75.785156 4.515625 76.164062 4.007812 C 76.792969 3.164062 76.792969 3.164062 77.53125 2.507812 C 78.1875 2.507812 78.84375 2.507812 79.519531 2.507812 C 78.929688 4.195312 78.390625 5.328125 77.035156 6.503906 C 77.59375 7.988281 78.140625 9.167969 79.023438 10.5 C 79.273438 9.882812 79.273438 9.882812 79.53125 9.257812 C 79.753906 8.71875 79.976562 8.179688 80.203125 7.628906 C 80.421875 7.09375 80.640625 6.5625 80.867188 6.011719 C 81.375 4.816406 81.90625 3.660156 82.503906 2.507812 C 82.996094 2.507812 83.488281 2.507812 83.992188 2.507812 C 84.8125 4.816406 85.632812 7.121094 86.480469 9.5 C 86.644531 7.355469 86.804688 5.214844 86.976562 3.007812 C 87.632812 2.84375 88.289062 2.675781 88.964844 2.507812 C 89.210938 3.992188 89.210938 3.992188 89.460938 5.503906 C 89.828125 5.011719 90.199219 4.515625 90.578125 4.007812 C 91.207031 3.164062 91.207031 3.164062 91.945312 2.507812 C 92.601562 2.507812 93.257812 2.507812 93.933594 2.507812 C 93.628906 4.503906 92.589844 5.875 91.449219 7.503906 C 91.632812 7.730469 91.820312 7.960938 92.007812 8.195312 C 92.246094 8.503906 92.480469 8.808594 92.722656 9.125 C 92.957031 9.425781 93.195312 9.726562 93.4375 10.039062 C 93.933594 11 93.933594 11 93.761719 12.113281 C 93.652344 12.40625 93.546875 12.695312 93.4375 12.996094 C 91.347656 12.246094 90.585938 10.855469 89.460938 9 C 89.296875 10.152344 89.132812 11.308594 88.964844 12.496094 C 87.527344 12.910156 86.535156 12.996094 84.988281 12.996094 C 84.660156 12.171875 84.332031 11.347656 83.992188 10.5 C 83.335938 10.5 82.679688 10.5 82.003906 10.5 C 81.78125 10.910156 81.554688 11.324219 81.320312 11.746094 C 80.515625 12.996094 80.515625 12.996094 79.085938 13.371094 C 77.046875 12.878906 76.570312 11.992188 75.484375 10.265625 C 75.339844 10.011719 75.195312 9.761719 75.046875 9.5 C 74.882812 10.488281 74.71875 11.476562 74.550781 12.496094 C 73.894531 12.660156 73.238281 12.828125 72.5625 12.996094 C 72.546875 11.339844 72.539062 9.6875 72.53125 8.03125 C 72.527344 7.5625 72.523438 7.089844 72.519531 6.601562 C 72.515625 6.152344 72.515625 5.703125 72.515625 5.242188 C 72.511719 4.824219 72.507812 4.410156 72.507812 3.980469 C 72.5625 3.007812 72.5625 3.007812 73.058594 2.507812 Z M 73.058594 2.507812 "/>
<path style=" stroke:none;fill-rule:nonzero;fill:rgb(25.882354%,29.019609%,27.058825%);fill-opacity:1;" d="M 57.855469 2.449219 C 58.632812 2.453125 58.632812 2.453125 59.425781 2.460938 C 59.984375 2.460938 60.542969 2.460938 61.117188 2.464844 C 61.707031 2.46875 62.296875 2.472656 62.902344 2.476562 C 63.492188 2.480469 64.082031 2.480469 64.691406 2.484375 C 66.15625 2.488281 67.621094 2.496094 69.082031 2.507812 C 68.917969 3.167969 68.753906 3.828125 68.585938 4.503906 C 67.929688 4.503906 67.273438 4.503906 66.597656 4.503906 C 66.609375 5.035156 66.621094 5.5625 66.632812 6.109375 C 66.644531 6.800781 66.652344 7.496094 66.660156 8.1875 C 66.667969 8.539062 66.675781 8.886719 66.6875 9.246094 C 66.695312 10.164062 66.648438 11.082031 66.597656 11.996094 C 66.269531 12.328125 65.941406 12.65625 65.605469 12.996094 C 65.113281 12.996094 64.621094 12.996094 64.113281 12.996094 C 64.113281 10.195312 64.113281 7.390625 64.113281 4.503906 C 62.144531 4.503906 60.175781 4.503906 58.148438 4.503906 C 58.148438 5.164062 58.148438 5.824219 58.148438 6.503906 C 59.132812 6.503906 60.117188 6.503906 61.132812 6.503906 C 60.96875 7.164062 60.804688 7.820312 60.632812 8.5 C 59.8125 8.5 58.996094 8.5 58.148438 8.5 C 58.148438 9.324219 58.148438 10.148438 58.148438 11 C 59.296875 11 60.445312 11 61.628906 11 C 61.464844 11.65625 61.300781 12.316406 61.132812 12.996094 C 59.492188 12.996094 57.851562 12.996094 56.160156 12.996094 C 55.007812 9.449219 54.726562 6.566406 56.160156 3.007812 C 56.660156 2.507812 56.660156 2.507812 57.855469 2.449219 Z M 57.855469 2.449219 "/>
<path style=" stroke:none;fill-rule:nonzero;fill:rgb(95.294118%,78.823531%,42.352942%);fill-opacity:1;" d="M 6.957031 2.007812 C 12.863281 2.007812 18.765625 2.007812 24.851562 2.007812 C 24.851562 4.644531 24.851562 7.28125 24.851562 10 C 18.945312 10 13.042969 10 6.957031 10 C 6.957031 8.1875 6.957031 6.375 6.957031 4.503906 C 7.285156 4.503906 7.613281 4.503906 7.953125 4.503906 C 7.953125 5.496094 7.953125 6.484375 7.953125 7.503906 C 8.445312 7.503906 8.9375 7.503906 9.441406 7.503906 C 9.441406 6.511719 9.441406 5.523438 9.441406 4.503906 C 9.769531 4.503906 10.097656 4.503906 10.4375 4.503906 C 10.4375 5.496094 10.4375 6.484375 10.4375 7.503906 C 10.929688 7.503906 11.421875 7.503906 11.929688 7.503906 C 12.09375 7.171875 12.257812 6.84375 12.425781 6.503906 C 12.425781 6.832031 12.425781 7.164062 12.425781 7.503906 C 15.214844 7.503906 18 7.503906 20.875 7.503906 C 20.875 6.511719 20.875 5.523438 20.875 4.503906 C 21.203125 4.503906 21.53125 4.503906 21.867188 4.503906 C 21.867188 5.496094 21.867188 6.484375 21.867188 7.503906 C 22.359375 7.503906 22.851562 7.503906 23.359375 7.503906 C 23.359375 6.511719 23.359375 5.523438 23.359375 4.503906 C 23.6875 4.503906 24.015625 4.503906 24.351562 4.503906 C 24.351562 4.011719 24.351562 3.515625 24.351562 3.007812 C 22.46875 3.078125 20.585938 3.152344 18.699219 3.226562 C 18.164062 3.246094 17.625 3.265625 17.074219 3.285156 C 16.558594 3.304688 16.046875 3.328125 15.519531 3.347656 C 15.046875 3.367188 14.574219 3.386719 14.085938 3.402344 C 12.910156 3.4375 12.910156 3.4375 11.929688 4.007812 C 11.929688 3.675781 11.929688 3.347656 11.929688 3.007812 C 10.289062 3.007812 8.648438 3.007812 6.957031 3.007812 C 6.957031 2.675781 6.957031 2.347656 6.957031 2.007812 Z M 6.957031 2.007812 "/>
<path style=" stroke:none;fill-rule:nonzero;fill:rgb(79.607844%,44.705883%,29.411766%);fill-opacity:1;" d="M 7.453125 3.007812 C 13.085938 3.007812 18.71875 3.007812 24.351562 3.007812 C 24.351562 3.5 24.351562 3.996094 24.351562 4.503906 C 24.023438 4.503906 23.695312 4.503906 23.359375 4.503906 C 23.359375 5.496094 23.359375 6.484375 23.359375 7.503906 C 22.867188 7.503906 22.375 7.503906 21.867188 7.503906 C 21.867188 6.511719 21.867188 5.523438 21.867188 4.503906 C 21.539062 4.503906 21.210938 4.503906 20.875 4.503906 C 20.875 5.496094 20.875 6.484375 20.875 7.503906 C 17.429688 7.503906 13.984375 7.503906 10.4375 7.503906 C 10.4375 6.511719 10.4375 5.523438 10.4375 4.503906 C 10.109375 4.503906 9.78125 4.503906 9.441406 4.503906 C 9.441406 5.496094 9.441406 6.484375 9.441406 7.503906 C 8.949219 7.503906 8.460938 7.503906 7.953125 7.503906 C 7.953125 6.511719 7.953125 5.523438 7.953125 4.503906 C 7.625 4.503906 7.296875 4.503906 6.957031 4.503906 C 7.121094 4.011719 7.285156 3.515625 7.453125 3.007812 Z M 7.453125 3.007812 "/>
<path style=" stroke:none;fill-rule:nonzero;fill:rgb(25.098041%,29.411766%,27.450982%);fill-opacity:1;" d="M 48.707031 2.507812 C 49.730469 2.726562 49.730469 2.726562 50.695312 3.007812 C 50.859375 3.667969 51.023438 4.324219 51.191406 5.003906 C 51.476562 4.59375 51.765625 4.179688 52.0625 3.757812 C 52.429688 3.34375 52.800781 2.933594 53.179688 2.507812 C 53.835938 2.507812 54.492188 2.507812 55.167969 2.507812 C 54.863281 4.503906 53.820312 5.875 52.683594 7.503906 C 52.960938 7.847656 52.960938 7.847656 53.242188 8.195312 C 53.480469 8.503906 53.714844 8.808594 53.957031 9.125 C 54.308594 9.578125 54.308594 9.578125 54.671875 10.039062 C 55.167969 11 55.167969 11 54.996094 12.113281 C 54.886719 12.40625 54.78125 12.695312 54.671875 12.996094 C 52.996094 12.300781 52.191406 11.507812 51.191406 10 C 50.699219 10.988281 50.207031 11.976562 49.699219 12.996094 C 49.207031 12.996094 48.714844 12.996094 48.210938 12.996094 C 48.195312 11.339844 48.1875 9.6875 48.179688 8.03125 C 48.175781 7.5625 48.171875 7.089844 48.164062 6.601562 C 48.164062 6.152344 48.164062 5.703125 48.160156 5.242188 C 48.15625 4.824219 48.15625 4.410156 48.152344 3.980469 C 48.210938 3.007812 48.210938 3.007812 48.707031 2.507812 Z M 48.707031 2.507812 "/>
<path style=" stroke:none;fill-rule:nonzero;fill:rgb(24.705882%,29.411766%,27.450982%);fill-opacity:1;" d="M 94.925781 2.507812 C 95.910156 2.753906 95.910156 2.753906 96.914062 3.007812 C 97.078125 5.480469 97.242188 7.953125 97.414062 10.5 C 98.234375 10.664062 99.054688 10.828125 99.898438 11 C 99.890625 10.203125 99.890625 10.203125 99.878906 9.394531 C 99.875 8.703125 99.871094 8.007812 99.867188 7.316406 C 99.863281 6.964844 99.859375 6.617188 99.855469 6.257812 C 99.839844 3.621094 99.839844 3.621094 100.394531 2.507812 C 100.886719 2.507812 101.378906 2.507812 101.886719 2.507812 C 101.914062 3.890625 101.933594 5.273438 101.949219 6.660156 C 101.957031 7.050781 101.964844 7.445312 101.972656 7.847656 C 101.976562 8.226562 101.980469 8.605469 101.984375 8.996094 C 101.988281 9.34375 101.992188 9.691406 102 10.046875 C 101.886719 11 101.886719 11 100.890625 12.496094 C 99.867188 12.789062 99.867188 12.789062 98.6875 12.902344 C 98.296875 12.945312 97.910156 12.992188 97.507812 13.035156 C 96.417969 12.996094 96.417969 12.996094 94.925781 11.996094 C 94.332031 10.203125 94.359375 8.558594 94.367188 6.691406 C 94.367188 6.34375 94.363281 5.996094 94.363281 5.640625 C 94.367188 3.070312 94.367188 3.070312 94.925781 2.507812 Z M 94.925781 2.507812 "/>
<path style=" stroke:none;fill-rule:nonzero;fill:rgb(56.078434%,38.82353%,22.352941%);fill-opacity:1;" d="M 4.472656 0.0117188 C 12.015625 0.0117188 19.5625 0.0117188 27.335938 0.0117188 C 27.335938 3.964844 27.335938 7.921875 27.335938 11.996094 C 26.84375 11.996094 26.351562 11.996094 25.84375 11.996094 C 25.84375 12.328125 25.84375 12.65625 25.84375 12.996094 C 25.515625 12.832031 25.1875 12.667969 24.851562 12.496094 C 25.011719 12.253906 25.175781 12.015625 25.34375 11.765625 C 26.074219 9.910156 25.929688 8.167969 25.875 6.191406 C 25.785156 2.128906 25.785156 2.128906 26.339844 1.007812 C 16.007812 1.257812 16.007812 1.257812 5.46875 1.507812 C 5.46875 2.003906 5.46875 2.496094 5.46875 3.007812 C 4.8125 3.007812 4.15625 3.007812 3.480469 3.007812 C 3.316406 3.5 3.152344 3.996094 2.980469 4.503906 C 2.980469 3.847656 2.980469 3.1875 2.980469 2.507812 C 3.308594 2.34375 3.636719 2.179688 3.976562 2.007812 C 4.140625 1.347656 4.304688 0.691406 4.472656 0.0117188 Z M 4.472656 0.0117188 "/>
<path style=" stroke:none;fill-rule:nonzero;fill:rgb(25.490198%,30.19608%,28.235295%);fill-opacity:1;" d="M 45.101562 2.382812 C 45.5 2.402344 45.898438 2.417969 46.308594 2.4375 C 46.605469 2.460938 46.90625 2.484375 47.214844 2.507812 C 47.214844 3.167969 47.214844 3.828125 47.214844 4.503906 C 46.742188 4.496094 46.273438 4.484375 45.785156 4.472656 C 44.28125 4.394531 44.28125 4.394531 43.238281 5.003906 C 43.230469 5.632812 43.21875 6.261719 43.207031 6.910156 C 43.203125 7.261719 43.195312 7.617188 43.191406 7.980469 C 43.199219 9.101562 43.199219 9.101562 43.734375 10.5 C 45.046875 10.5 46.359375 10.5 47.710938 10.5 C 47.527344 11.464844 47.527344 11.464844 47.214844 12.496094 C 45.679688 13.269531 44.433594 13.144531 42.742188 12.996094 C 41.253906 11.898438 40.804688 11.296875 40.492188 9.453125 C 40.496094 8.890625 40.5 8.332031 40.503906 7.753906 C 40.5 6.910156 40.5 6.910156 40.492188 6.050781 C 40.960938 3.292969 42.367188 2.222656 45.101562 2.382812 Z M 45.101562 2.382812 "/>
<path style=" stroke:none;fill-rule:nonzero;fill:rgb(25.098041%,29.411766%,27.450982%);fill-opacity:1;" d="M 30.316406 2.507812 C 32.613281 2.507812 34.910156 2.507812 37.273438 2.507812 C 37.109375 3.167969 36.945312 3.828125 36.777344 4.503906 C 36.121094 4.671875 35.464844 4.835938 34.789062 5.003906 C 34.800781 5.457031 34.8125 5.90625 34.824219 6.371094 C 34.839844 7.257812 34.839844 7.257812 34.851562 8.15625 C 34.863281 8.742188 34.875 9.328125 34.886719 9.929688 C 34.789062 11.496094 34.789062 11.496094 33.796875 12.996094 C 33.304688 12.996094 32.8125 12.996094 32.304688 12.996094 C 32.304688 10.195312 32.304688 7.390625 32.304688 4.503906 C 31.484375 4.503906 30.664062 4.503906 29.820312 4.503906 C 29.984375 3.847656 30.148438 3.1875 30.316406 2.507812 Z M 30.316406 2.507812 "/>
<path style=" stroke:none;fill-rule:nonzero;fill:rgb(92.941177%,56.078434%,20.392157%);fill-opacity:1;" d="M 6.460938 11.996094 C 9.984375 12.347656 13.445312 12.902344 16.929688 13.527344 C 17.453125 13.621094 17.980469 13.710938 18.519531 13.808594 C 19.800781 14.035156 21.082031 14.265625 22.363281 14.496094 C 22.199219 15.648438 22.039062 16.800781 21.867188 17.992188 C 21.210938 17.992188 20.554688 17.992188 19.878906 17.992188 C 19.878906 17.660156 19.878906 17.332031 19.878906 16.992188 C 19.238281 16.863281 18.601562 16.738281 17.941406 16.605469 C 15.402344 16.039062 13.058594 15.160156 10.65625 14.183594 C 10.246094 14.019531 9.839844 13.859375 9.421875 13.691406 C 8.433594 13.296875 7.449219 12.898438 6.460938 12.496094 C 6.460938 12.332031 6.460938 12.167969 6.460938 11.996094 Z M 6.460938 11.996094 "/>
<path style=" stroke:none;fill-rule:nonzero;fill:rgb(89.019608%,70.980394%,38.431373%);fill-opacity:1;" d="M 9.441406 4.503906 C 9.769531 4.503906 10.097656 4.503906 10.4375 4.503906 C 10.4375 5.496094 10.4375 6.484375 10.4375 7.503906 C 10.929688 7.503906 11.421875 7.503906 11.929688 7.503906 C 12.09375 7.171875 12.257812 6.84375 12.425781 6.503906 C 12.425781 6.832031 12.425781 7.164062 12.425781 7.503906 C 15.214844 7.503906 18 7.503906 20.875 7.503906 C 20.875 6.511719 20.875 5.523438 20.875 4.503906 C 21.203125 4.503906 21.53125 4.503906 21.867188 4.503906 C 21.867188 5.496094 21.867188 6.484375 21.867188 7.503906 C 22.359375 7.667969 22.851562 7.832031 23.359375 8 C 23.195312 8.332031 23.03125 8.660156 22.863281 9 C 18.105469 9 13.347656 9 8.449219 9 C 8.285156 8.507812 8.121094 8.011719 7.953125 7.503906 C 8.445312 7.503906 8.9375 7.503906 9.441406 7.503906 C 9.441406 6.511719 9.441406 5.523438 9.441406 4.503906 Z M 9.441406 4.503906 "/>
<path style=" stroke:none;fill-rule:nonzero;fill:rgb(75.686276%,38.039216%,26.274511%);fill-opacity:1;" d="M 15.875 3.457031 C 16.765625 3.464844 16.765625 3.464844 17.675781 3.476562 C 18.566406 3.480469 18.566406 3.480469 19.476562 3.488281 C 19.9375 3.496094 20.398438 3.5 20.875 3.507812 C 20.875 4.824219 20.875 6.144531 20.875 7.503906 C 18.742188 7.503906 16.609375 7.503906 14.414062 7.503906 C 14.578125 6.511719 14.742188 5.523438 14.910156 4.503906 C 14.582031 4.339844 14.253906 4.175781 13.917969 4.007812 C 14.414062 3.507812 14.414062 3.507812 15.875 3.457031 Z M 15.875 3.457031 "/>
<path style=" stroke:none;fill-rule:nonzero;fill:rgb(95.294118%,57.647061%,21.176471%);fill-opacity:1;" d="M 10.4375 11.496094 C 15.195312 11.496094 19.949219 11.496094 24.851562 11.496094 C 24.6875 12.320312 24.523438 13.144531 24.351562 13.996094 C 19.648438 13.699219 15.066406 12.863281 10.4375 11.996094 C 10.4375 11.832031 10.4375 11.667969 10.4375 11.496094 Z M 10.4375 11.496094 "/>
<path style=" stroke:none;fill-rule:nonzero;fill:rgb(25.098041%,30.980393%,28.627452%);fill-opacity:1;" d="M 38.269531 2.507812 C 38.761719 2.507812 39.253906 2.507812 39.761719 2.507812 C 39.761719 5.804688 39.761719 9.101562 39.761719 12.496094 C 39.105469 12.660156 38.449219 12.828125 37.773438 12.996094 C 37.757812 11.339844 37.75 9.6875 37.742188 8.03125 C 37.738281 7.5625 37.734375 7.089844 37.730469 6.601562 C 37.726562 6.152344 37.726562 5.703125 37.722656 5.242188 C 37.722656 4.824219 37.71875 4.410156 37.714844 3.980469 C 37.773438 3.007812 37.773438 3.007812 38.269531 2.507812 Z M 38.269531 2.507812 "/>
<path style=" stroke:none;fill-rule:nonzero;fill:rgb(85.490197%,50.196081%,19.607843%);fill-opacity:1;" d="M 3.480469 3.007812 C 3.972656 3.007812 4.464844 3.007812 4.96875 3.007812 C 5.390625 5.542969 5.511719 7.925781 5.46875 10.5 C 4.171875 10.964844 3.65625 11.074219 2.359375 10.53125 C 2.074219 10.355469 1.785156 10.179688 1.492188 10 C 1.820312 10 2.148438 10 2.484375 10 C 2.515625 9.703125 2.546875 9.410156 2.578125 9.105469 C 2.792969 7.046875 3.023438 5.027344 3.480469 3.007812 Z M 3.480469 3.007812 "/>
<path style=" stroke:none;fill-rule:nonzero;fill:rgb(42.745098%,29.803923%,19.607843%);fill-opacity:1;" d="M 5.964844 12.996094 C 9.011719 12.648438 11.132812 13.601562 13.90625 14.835938 C 15.863281 15.691406 17.847656 16.34375 19.878906 16.992188 C 19.878906 17.320312 19.878906 17.652344 19.878906 17.992188 C 20.535156 17.992188 21.191406 17.992188 21.867188 17.992188 C 21.867188 17.332031 21.867188 16.671875 21.867188 15.992188 C 22.195312 15.992188 22.523438 15.992188 22.863281 15.992188 C 22.863281 15.5 22.863281 15.003906 22.863281 14.496094 C 23.683594 14.496094 24.503906 14.496094 25.347656 14.496094 C 24.707031 15.179688 24.042969 15.847656 23.359375 16.492188 C 23.03125 16.492188 22.703125 16.492188 22.363281 16.492188 C 22.609375 17.234375 22.609375 17.234375 22.863281 17.992188 C 22.535156 18.320312 22.207031 18.648438 21.867188 18.988281 C 19.4375 18.191406 17.03125 17.355469 14.640625 16.441406 C 11.773438 15.390625 8.863281 14.457031 5.964844 13.496094 C 5.964844 13.332031 5.964844 13.164062 5.964844 12.996094 Z M 5.964844 12.996094 "/>
<path style=" stroke:none;fill-rule:nonzero;fill:rgb(97.647059%,82.745099%,42.745098%);fill-opacity:1;" d="M 6.957031 4.503906 C 7.285156 4.503906 7.613281 4.503906 7.953125 4.503906 C 8.117188 5.988281 8.28125 7.472656 8.449219 9 C 13.207031 9 17.960938 9 22.863281 9 C 23.191406 7.683594 23.519531 6.363281 23.855469 5.003906 C 24.019531 5.003906 24.183594 5.003906 24.351562 5.003906 C 24.351562 6.488281 24.351562 7.972656 24.351562 9.5 C 18.613281 9.5 12.871094 9.5 6.957031 9.5 C 6.957031 7.851562 6.957031 6.203125 6.957031 4.503906 Z M 6.957031 4.503906 "/>
<path style=" stroke:none;fill-rule:nonzero;fill:rgb(34.901962%,29.803923%,25.098041%);fill-opacity:1;" d="M 4.472656 0.0117188 C 12.015625 0.0117188 19.5625 0.0117188 27.335938 0.0117188 C 27.171875 0.667969 27.007812 1.328125 26.839844 2.007812 C 26.839844 1.515625 26.839844 1.019531 26.839844 0.511719 C 19.785156 0.675781 12.734375 0.839844 5.46875 1.007812 C 5.46875 1.667969 5.46875 2.328125 5.46875 3.007812 C 4.8125 3.007812 4.15625 3.007812 3.480469 3.007812 C 3.316406 3.5 3.152344 3.996094 2.980469 4.503906 C 2.980469 3.847656 2.980469 3.1875 2.980469 2.507812 C 3.308594 2.34375 3.636719 2.179688 3.976562 2.007812 C 4.140625 1.347656 4.304688 0.691406 4.472656 0.0117188 Z M 4.472656 0.0117188 "/>
<path style=" stroke:none;fill-rule:nonzero;fill:rgb(25.882354%,31.764707%,29.411766%);fill-opacity:1;" d="M 64.609375 4.503906 C 65.101562 4.503906 65.59375 4.503906 66.101562 4.503906 C 66.101562 7.144531 66.101562 9.78125 66.101562 12.496094 C 65.609375 12.496094 65.117188 12.496094 64.609375 12.496094 C 64.609375 9.859375 64.609375 7.222656 64.609375 4.503906 Z M 64.609375 4.503906 "/>
<path style=" stroke:none;fill-rule:nonzero;fill:rgb(42.352942%,29.803923%,20.392157%);fill-opacity:1;" d="M 2.484375 5.003906 C 2.8125 5.167969 3.140625 5.335938 3.480469 5.503906 C 3.152344 6.988281 2.824219 8.472656 2.484375 10 C 2.8125 10.164062 3.140625 10.328125 3.480469 10.5 C 3.480469 10.828125 3.480469 11.15625 3.480469 11.496094 C 4.710938 11.992188 4.710938 11.992188 5.964844 12.496094 C 5.03125 12.808594 5.03125 12.808594 3.976562 12.996094 C 3.648438 12.667969 3.320312 12.335938 2.980469 11.996094 C 1.703125 11.671875 1.703125 11.671875 0.496094 11.496094 C 0.332031 11.003906 0.167969 10.507812 0 10 C 0.492188 9.667969 0.984375 9.339844 1.492188 9 C 1.695312 7.839844 1.859375 6.675781 1.988281 5.503906 C 2.152344 5.339844 2.316406 5.175781 2.484375 5.003906 Z M 2.484375 5.003906 "/>
<path style=" stroke:none;fill-rule:nonzero;fill:rgb(25.098041%,30.588236%,28.627452%);fill-opacity:1;" d="M 62.125 2.507812 C 64.421875 2.507812 66.71875 2.507812 69.082031 2.507812 C 69.082031 3.003906 69.082031 3.496094 69.082031 4.007812 C 66.789062 4.007812 64.492188 4.007812 62.125 4.007812 C 62.125 3.511719 62.125 3.015625 62.125 2.507812 Z M 62.125 2.507812 "/>
<path style=" stroke:none;fill-rule:nonzero;fill:rgb(85.09804%,48.235294%,33.333334%);fill-opacity:1;" d="M 13.417969 3.507812 C 13.746094 3.671875 14.074219 3.835938 14.414062 4.007812 C 15.039062 6.242188 15.039062 6.242188 14.414062 7.503906 C 13.757812 7.503906 13.101562 7.503906 12.425781 7.503906 C 12.363281 6.066406 12.363281 6.066406 12.425781 4.503906 C 12.753906 4.175781 13.082031 3.847656 13.417969 3.507812 Z M 13.417969 3.507812 "/>
<path style=" stroke:none;fill-rule:nonzero;fill:rgb(79.607844%,38.431373%,28.627452%);fill-opacity:1;" d="M 21.371094 3.507812 C 22.355469 3.507812 23.339844 3.507812 24.351562 3.507812 C 24.351562 3.835938 24.351562 4.164062 24.351562 4.503906 C 24.023438 4.503906 23.695312 4.503906 23.359375 4.503906 C 23.359375 5.496094 23.359375 6.484375 23.359375 7.503906 C 22.867188 7.503906 22.375 7.503906 21.867188 7.503906 C 21.703125 6.183594 21.539062 4.863281 21.371094 3.507812 Z M 21.371094 3.507812 "/>
<path style=" stroke:none;fill-rule:nonzero;fill:rgb(24.313726%,28.627452%,26.274511%);fill-opacity:1;" d="M 61.628906 11 C 61.464844 11.65625 61.300781 12.316406 61.132812 12.996094 C 59.65625 12.996094 58.179688 12.996094 56.660156 12.996094 C 56.660156 12.667969 56.660156 12.335938 56.660156 11.996094 C 58.46875 10.785156 59.496094 10.917969 61.628906 11 Z M 61.628906 11 "/>
<path style=" stroke:none;fill-rule:nonzero;fill:rgb(69.803923%,40.000001%,19.607843%);fill-opacity:1;" d="M 3.480469 3.007812 C 3.972656 3.007812 4.464844 3.007812 4.96875 3.007812 C 5.34375 4.132812 5.34375 4.132812 5.46875 5.503906 C 4.503906 6.660156 4.503906 6.660156 3.480469 7.503906 C 2.929688 5.839844 3.058594 4.695312 3.480469 3.007812 Z M 3.480469 3.007812 "/>
<path style=" stroke:none;fill-rule:nonzero;fill:rgb(70.588237%,40.000001%,18.82353%);fill-opacity:1;" d="M 6.773438 10.71875 C 7.382812 10.792969 7.382812 10.792969 8.003906 10.871094 C 8.46875 10.933594 8.46875 10.933594 8.945312 11 C 8.453125 11.65625 7.960938 12.316406 7.453125 12.996094 C 5.621094 12.746094 4.667969 12.445312 3.480469 11 C 4.730469 10.367188 5.394531 10.539062 6.773438 10.71875 Z M 6.773438 10.71875 "/>
<path style=" stroke:none;fill-rule:nonzero;fill:rgb(81.568629%,38.431373%,30.19608%);fill-opacity:1;" d="M 18.886719 3.507812 C 19.542969 3.507812 20.199219 3.507812 20.875 3.507812 C 20.875 4.496094 20.875 5.484375 20.875 6.503906 C 20.21875 6.667969 19.5625 6.832031 18.886719 7.003906 C 18.886719 5.847656 18.886719 4.695312 18.886719 3.507812 Z M 18.886719 3.507812 "/>
<path style=" stroke:none;fill-rule:nonzero;fill:rgb(84.705883%,35.686275%,31.764707%);fill-opacity:1;" d="M 15.40625 4.007812 C 15.570312 4.335938 15.734375 4.664062 15.902344 5.003906 C 16.230469 5.003906 16.558594 5.003906 16.898438 5.003906 C 17.0625 4.675781 17.226562 4.347656 17.394531 4.007812 C 17.707031 4.941406 17.707031 4.941406 17.890625 6.003906 C 17.5625 6.332031 17.234375 6.664062 16.898438 7.003906 C 16.898438 6.671875 16.898438 6.34375 16.898438 6.003906 C 16.570312 6.003906 16.242188 6.003906 15.902344 6.003906 C 15.738281 6.5 15.574219 6.992188 15.40625 7.503906 C 15.40625 6.347656 15.40625 5.195312 15.40625 4.007812 Z M 15.40625 4.007812 "/>
</g>
</svg>
