<?xml version="1.0" encoding="UTF-8"?>
<svg xmlns="http://www.w3.org/2000/svg" xmlns:xlink="http://www.w3.org/1999/xlink" width="300px" height="56px" viewBox="0 0 302 56" version="1.1">
<g id="surface1">
<path style=" stroke:none;fill-rule:nonzero;fill:rgb(85.09804%,59.607846%,27.058825%);fill-opacity:1;" d="M 13.242188 0.03125 C 35.582031 0.03125 57.917969 0.03125 80.933594 0.03125 C 80.933594 11.691406 80.933594 23.347656 80.933594 35.359375 C 79.476562 35.359375 78.019531 35.359375 76.519531 35.359375 C 76.035156 38.273438 75.546875 41.1875 75.046875 44.191406 C 73.589844 44.679688 72.132812 45.164062 70.632812 45.664062 C 70.148438 46.636719 69.660156 47.609375 69.160156 48.609375 C 68.191406 48.609375 67.21875 48.609375 66.21875 48.609375 C 66.703125 50.066406 67.191406 51.523438 67.691406 53.023438 C 66.71875 53.996094 65.746094 54.96875 64.746094 55.96875 C 57.539062 53.613281 50.410156 51.148438 43.324219 48.441406 C 37.445312 46.304688 31.5 44.371094 25.554688 42.429688 C 20.390625 40.730469 15.339844 38.867188 10.300781 36.832031 C 8.722656 36.375 7.144531 35.921875 5.519531 35.453125 C 3.515625 34.679688 3.515625 34.679688 1.472656 33.886719 C 0.984375 32.429688 0.5 30.972656 0 29.472656 C 1.457031 28.5 2.914062 27.527344 4.414062 26.527344 C 4.964844 23.101562 5.457031 19.667969 5.886719 16.222656 C 6.855469 15.253906 7.828125 14.28125 8.828125 13.28125 C 8.828125 11.335938 8.828125 9.394531 8.828125 7.390625 C 9.800781 6.90625 10.773438 6.421875 11.773438 5.917969 C 12.257812 3.976562 12.742188 2.035156 13.242188 0.03125 Z M 13.242188 0.03125 "/>
<path style=" stroke:none;fill-rule:nonzero;fill:rgb(77.254903%,44.313726%,17.254902%);fill-opacity:1;" d="M 13.242188 0.03125 C 35.582031 0.03125 57.917969 0.03125 80.933594 0.03125 C 80.933594 11.691406 80.933594 23.347656 80.933594 35.359375 C 79.476562 35.359375 78.019531 35.359375 76.519531 35.359375 C 76.035156 38.273438 75.546875 41.1875 75.046875 44.191406 C 73.589844 44.679688 72.132812 45.164062 70.632812 45.664062 C 70.148438 46.636719 69.660156 47.609375 69.160156 48.609375 C 68.191406 48.609375 67.21875 48.609375 66.21875 48.609375 C 66.703125 50.066406 67.191406 51.523438 67.691406 53.023438 C 66.71875 53.996094 65.746094 54.96875 64.746094 55.96875 C 57.539062 53.613281 50.410156 51.148438 43.324219 48.441406 C 37.445312 46.304688 31.5 44.371094 25.554688 42.429688 C 20.390625 40.730469 15.339844 38.867188 10.300781 36.832031 C 8.722656 36.375 7.144531 35.921875 5.519531 35.453125 C 3.515625 34.679688 3.515625 34.679688 1.472656 33.886719 C 0.984375 32.429688 0.5 30.972656 0 29.472656 C 1.457031 28.5 2.914062 27.527344 4.414062 26.527344 C 4.964844 23.101562 5.457031 19.667969 5.886719 16.222656 C 6.855469 15.253906 7.828125 14.28125 8.828125 13.28125 C 8.828125 11.335938 8.828125 9.394531 8.828125 7.390625 C 9.800781 6.90625 10.773438 6.421875 11.773438 5.917969 C 12.257812 3.976562 12.742188 2.035156 13.242188 0.03125 Z M 14.714844 2.976562 C 14.714844 12.691406 14.714844 22.40625 14.714844 32.417969 C 35.597656 32.417969 56.476562 32.417969 77.992188 32.417969 C 77.992188 22.699219 77.992188 12.984375 77.992188 2.976562 C 57.109375 2.976562 36.230469 2.976562 14.714844 2.976562 Z M 14.714844 2.976562 "/>
<path style=" stroke:none;fill-rule:nonzero;fill:rgb(91.37255%,93.333334%,92.54902%);fill-opacity:1;" d="M 216.3125 7.390625 C 217.769531 7.390625 219.226562 7.390625 220.726562 7.390625 C 221.214844 10.304688 221.699219 13.222656 222.199219 16.222656 C 223.292969 14.765625 224.382812 13.308594 225.511719 11.808594 C 227.371094 9.324219 227.371094 9.324219 229.558594 7.390625 C 231.5 7.390625 233.441406 7.390625 235.441406 7.390625 C 233.699219 12.359375 232.09375 15.703125 228.085938 19.167969 C 229.742188 23.542969 231.355469 27.019531 233.972656 30.945312 C 234.71875 29.132812 234.71875 29.132812 235.476562 27.285156 C 236.132812 25.699219 236.789062 24.113281 237.464844 22.480469 C 238.117188 20.910156 238.765625 19.335938 239.433594 17.71875 C 240.9375 14.199219 242.507812 10.785156 244.273438 7.390625 C 245.730469 7.390625 247.1875 7.390625 248.6875 7.390625 C 251.113281 14.191406 253.542969 20.992188 256.042969 28 C 256.53125 21.683594 257.015625 15.371094 257.515625 8.863281 C 259.457031 8.378906 261.402344 7.890625 263.402344 7.390625 C 264.128906 11.761719 264.128906 11.761719 264.875 16.222656 C 265.964844 14.765625 267.058594 13.308594 268.183594 11.808594 C 270.046875 9.324219 270.046875 9.324219 272.230469 7.390625 C 274.171875 7.390625 276.117188 7.390625 278.117188 7.390625 C 277.214844 13.273438 274.132812 17.320312 270.757812 22.113281 C 271.308594 22.789062 271.855469 23.464844 272.421875 24.160156 C 273.117188 25.0625 273.8125 25.964844 274.53125 26.894531 C 275.230469 27.785156 275.929688 28.671875 276.652344 29.585938 C 278.117188 32.417969 278.117188 32.417969 277.605469 35.707031 C 277.289062 36.5625 276.972656 37.421875 276.644531 38.304688 C 270.457031 36.09375 268.199219 31.996094 264.875 26.527344 C 264.386719 29.929688 263.902344 33.328125 263.402344 36.832031 C 259.144531 38.046875 256.210938 38.304688 251.628906 38.304688 C 250.660156 35.875 249.6875 33.445312 248.6875 30.945312 C 246.746094 30.945312 244.800781 30.945312 242.800781 30.945312 C 242.132812 32.160156 241.464844 33.371094 240.777344 34.625 C 238.386719 38.304688 238.386719 38.304688 234.15625 39.410156 C 228.121094 37.960938 226.707031 35.339844 223.5 30.253906 C 223.070312 29.511719 222.640625 28.765625 222.199219 28 C 221.714844 30.914062 221.226562 33.828125 220.726562 36.832031 C 218.785156 37.316406 216.84375 37.804688 214.84375 38.304688 C 214.800781 33.429688 214.773438 28.550781 214.75 23.675781 C 214.738281 22.285156 214.726562 20.890625 214.710938 19.457031 C 214.707031 18.132812 214.703125 16.8125 214.699219 15.449219 C 214.691406 14.222656 214.683594 12.996094 214.675781 11.734375 C 214.84375 8.863281 214.84375 8.863281 216.3125 7.390625 Z M 216.3125 7.390625 "/>
<path style=" stroke:none;fill-rule:nonzero;fill:rgb(94.117647%,95.686275%,94.901961%);fill-opacity:1;" d="M 171.296875 7.222656 C 173.597656 7.234375 173.597656 7.234375 175.945312 7.246094 C 177.597656 7.253906 179.253906 7.257812 180.960938 7.261719 C 182.703125 7.273438 184.445312 7.285156 186.238281 7.300781 C 187.988281 7.304688 189.734375 7.3125 191.535156 7.320312 C 195.871094 7.335938 200.207031 7.363281 204.542969 7.390625 C 204.054688 9.335938 203.570312 11.277344 203.070312 13.28125 C 201.128906 13.28125 199.183594 13.28125 197.183594 13.28125 C 197.21875 14.839844 197.25 16.398438 197.289062 18.007812 C 197.316406 20.050781 197.339844 22.09375 197.367188 24.136719 C 197.390625 25.164062 197.417969 26.191406 197.441406 27.253906 C 197.46875 29.957031 197.335938 32.660156 197.183594 35.359375 C 196.210938 36.332031 195.242188 37.304688 194.242188 38.304688 C 192.785156 38.304688 191.328125 38.304688 189.824219 38.304688 C 189.824219 30.046875 189.824219 21.789062 189.824219 13.28125 C 184 13.28125 178.171875 13.28125 172.167969 13.28125 C 172.167969 15.222656 172.167969 17.164062 172.167969 19.167969 C 175.082031 19.167969 177.996094 19.167969 180.996094 19.167969 C 180.511719 21.109375 180.027344 23.054688 179.527344 25.054688 C 177.097656 25.054688 174.667969 25.054688 172.167969 25.054688 C 172.167969 27.484375 172.167969 29.914062 172.167969 32.417969 C 175.566406 32.417969 178.964844 32.417969 182.46875 32.417969 C 181.984375 34.359375 181.496094 36.300781 180.996094 38.304688 C 176.140625 38.304688 171.285156 38.304688 166.28125 38.304688 C 162.867188 27.847656 162.039062 19.351562 166.28125 8.863281 C 167.753906 7.390625 167.753906 7.390625 171.296875 7.222656 Z M 171.296875 7.222656 "/>
<path style=" stroke:none;fill-rule:nonzero;fill:rgb(95.294118%,78.823531%,42.352942%);fill-opacity:1;" d="M 20.601562 5.917969 C 38.082031 5.917969 55.566406 5.917969 73.574219 5.917969 C 73.574219 13.691406 73.574219 21.464844 73.574219 29.472656 C 56.09375 29.472656 38.613281 29.472656 20.601562 29.472656 C 20.601562 24.128906 20.601562 18.785156 20.601562 13.28125 C 21.574219 13.28125 22.542969 13.28125 23.542969 13.28125 C 23.542969 16.195312 23.542969 19.109375 23.542969 22.113281 C 25 22.113281 26.457031 22.113281 27.957031 22.113281 C 27.957031 19.195312 27.957031 16.28125 27.957031 13.28125 C 28.929688 13.28125 29.902344 13.28125 30.902344 13.28125 C 30.902344 16.195312 30.902344 19.109375 30.902344 22.113281 C 32.359375 22.113281 33.816406 22.113281 35.316406 22.113281 C 35.800781 21.140625 36.289062 20.167969 36.789062 19.167969 C 36.789062 20.140625 36.789062 21.109375 36.789062 22.113281 C 45.042969 22.113281 53.296875 22.113281 61.804688 22.113281 C 61.804688 19.195312 61.804688 16.28125 61.804688 13.28125 C 62.773438 13.28125 63.746094 13.28125 64.746094 13.28125 C 64.746094 16.195312 64.746094 19.109375 64.746094 22.113281 C 66.203125 22.113281 67.660156 22.113281 69.160156 22.113281 C 69.160156 19.195312 69.160156 16.28125 69.160156 13.28125 C 70.132812 13.28125 71.105469 13.28125 72.105469 13.28125 C 72.105469 11.824219 72.105469 10.363281 72.105469 8.863281 C 66.523438 9.066406 60.945312 9.285156 55.367188 9.507812 C 53.777344 9.566406 52.1875 9.625 50.550781 9.683594 C 49.03125 9.746094 47.515625 9.804688 45.949219 9.871094 C 44.546875 9.921875 43.144531 9.976562 41.699219 10.035156 C 38.226562 10.125 38.226562 10.125 35.316406 11.808594 C 35.316406 10.835938 35.316406 9.863281 35.316406 8.863281 C 30.460938 8.863281 25.605469 8.863281 20.601562 8.863281 C 20.601562 7.890625 20.601562 6.921875 20.601562 5.917969 Z M 20.601562 5.917969 "/>
<path style=" stroke:none;fill-rule:nonzero;fill:rgb(79.607844%,44.705883%,29.411766%);fill-opacity:1;" d="M 22.074219 8.863281 C 38.75 8.863281 55.425781 8.863281 72.105469 8.863281 C 72.105469 10.320312 72.105469 11.777344 72.105469 13.28125 C 71.132812 13.28125 70.160156 13.28125 69.160156 13.28125 C 69.160156 16.195312 69.160156 19.109375 69.160156 22.113281 C 67.703125 22.113281 66.246094 22.113281 64.746094 22.113281 C 64.746094 19.195312 64.746094 16.28125 64.746094 13.28125 C 63.777344 13.28125 62.804688 13.28125 61.804688 13.28125 C 61.804688 16.195312 61.804688 19.109375 61.804688 22.113281 C 51.605469 22.113281 41.410156 22.113281 30.902344 22.113281 C 30.902344 19.195312 30.902344 16.28125 30.902344 13.28125 C 29.929688 13.28125 28.960938 13.28125 27.957031 13.28125 C 27.957031 16.195312 27.957031 19.109375 27.957031 22.113281 C 26.503906 22.113281 25.046875 22.113281 23.542969 22.113281 C 23.542969 19.195312 23.542969 16.28125 23.542969 13.28125 C 22.574219 13.28125 21.601562 13.28125 20.601562 13.28125 C 21.085938 11.824219 21.574219 10.363281 22.074219 8.863281 Z M 22.074219 8.863281 "/>
<path style=" stroke:none;fill-rule:nonzero;fill:rgb(92.941177%,94.901961%,94.117647%);fill-opacity:1;" d="M 144.207031 7.390625 C 147.242188 8.035156 147.242188 8.035156 150.09375 8.863281 C 150.582031 10.808594 151.066406 12.75 151.566406 14.75 C 152.417969 13.539062 153.265625 12.324219 154.140625 11.070312 C 155.234375 9.855469 156.328125 8.644531 157.453125 7.390625 C 159.394531 7.390625 161.335938 7.390625 163.339844 7.390625 C 162.433594 13.273438 159.355469 17.320312 155.980469 22.113281 C 156.804688 23.125 156.804688 23.125 157.640625 24.160156 C 158.339844 25.0625 159.035156 25.964844 159.75 26.894531 C 160.800781 28.226562 160.800781 28.226562 161.871094 29.585938 C 163.339844 32.417969 163.339844 32.417969 162.828125 35.707031 C 162.511719 36.5625 162.195312 37.421875 161.867188 38.304688 C 156.914062 36.253906 154.53125 33.917969 151.566406 29.472656 C 150.109375 32.386719 148.652344 35.300781 147.152344 38.304688 C 145.695312 38.304688 144.238281 38.304688 142.738281 38.304688 C 142.695312 33.429688 142.667969 28.550781 142.644531 23.675781 C 142.632812 22.285156 142.621094 20.890625 142.609375 19.457031 C 142.601562 18.132812 142.597656 16.8125 142.59375 15.449219 C 142.585938 14.222656 142.578125 12.996094 142.570312 11.734375 C 142.738281 8.863281 142.738281 8.863281 144.207031 7.390625 Z M 144.207031 7.390625 "/>
<path style=" stroke:none;fill-rule:nonzero;fill:rgb(92.54902%,95.686275%,94.509804%);fill-opacity:1;" d="M 281.058594 7.390625 C 283.972656 8.121094 283.972656 8.121094 286.945312 8.863281 C 287.433594 16.148438 287.917969 23.4375 288.417969 30.945312 C 290.847656 31.429688 293.273438 31.914062 295.777344 32.417969 C 295.75 30.078125 295.75 30.078125 295.722656 27.691406 C 295.710938 25.644531 295.695312 23.601562 295.683594 21.558594 C 295.671875 20.53125 295.660156 19.503906 295.644531 18.441406 C 295.609375 10.667969 295.609375 10.667969 297.246094 7.390625 C 298.703125 7.390625 300.160156 7.390625 301.660156 7.390625 C 301.742188 11.46875 301.800781 15.546875 301.84375 19.628906 C 301.871094 20.785156 301.894531 21.941406 301.921875 23.132812 C 301.929688 24.246094 301.9375 25.363281 301.949219 26.511719 C 301.964844 27.535156 301.980469 28.5625 301.996094 29.617188 C 301.660156 32.417969 301.660156 32.417969 298.71875 36.832031 C 295.6875 37.6875 295.6875 37.6875 292.1875 38.027344 C 291.039062 38.160156 289.886719 38.289062 288.699219 38.425781 C 285.476562 38.304688 285.476562 38.304688 281.058594 35.359375 C 279.296875 30.070312 279.375 25.222656 279.40625 19.71875 C 279.398438 18.699219 279.394531 17.679688 279.386719 16.625 C 279.402344 9.050781 279.402344 9.050781 281.058594 7.390625 Z M 281.058594 7.390625 "/>
<path style=" stroke:none;fill-rule:nonzero;fill:rgb(56.078434%,38.82353%,22.352941%);fill-opacity:1;" d="M 13.242188 0.03125 C 35.582031 0.03125 57.917969 0.03125 80.933594 0.03125 C 80.933594 11.691406 80.933594 23.347656 80.933594 35.359375 C 79.476562 35.359375 78.019531 35.359375 76.519531 35.359375 C 76.519531 36.332031 76.519531 37.304688 76.519531 38.304688 C 75.546875 37.820312 74.578125 37.332031 73.574219 36.832031 C 74.058594 36.121094 74.542969 35.414062 75.042969 34.683594 C 77.203125 29.210938 76.773438 24.070312 76.609375 18.246094 C 76.34375 6.273438 76.34375 6.273438 77.992188 2.976562 C 47.398438 3.703125 47.398438 3.703125 16.1875 4.449219 C 16.1875 5.90625 16.1875 7.363281 16.1875 8.863281 C 14.246094 8.863281 12.300781 8.863281 10.300781 8.863281 C 9.816406 10.320312 9.328125 11.777344 8.828125 13.28125 C 8.828125 11.335938 8.828125 9.394531 8.828125 7.390625 C 9.800781 6.90625 10.773438 6.421875 11.773438 5.917969 C 12.257812 3.976562 12.742188 2.035156 13.242188 0.03125 Z M 13.242188 0.03125 "/>
<path style=" stroke:none;fill-rule:nonzero;fill:rgb(91.37255%,93.333334%,92.54902%);fill-opacity:1;" d="M 133.539062 7.023438 C 134.714844 7.078125 135.890625 7.128906 137.105469 7.183594 C 137.992188 7.253906 138.878906 7.320312 139.792969 7.390625 C 139.792969 9.335938 139.792969 11.277344 139.792969 13.28125 C 138.398438 13.25 137.003906 13.21875 135.5625 13.1875 C 131.101562 12.949219 131.101562 12.949219 128.023438 14.75 C 127.992188 16.605469 127.960938 18.457031 127.929688 20.363281 C 127.914062 21.40625 127.894531 22.449219 127.878906 23.519531 C 127.902344 26.828125 127.902344 26.828125 129.492188 30.945312 C 133.378906 30.945312 137.261719 30.945312 141.265625 30.945312 C 140.714844 33.796875 140.714844 33.796875 139.792969 36.832031 C 135.246094 39.109375 131.5625 38.738281 126.550781 38.304688 C 122.144531 35.066406 120.816406 33.300781 119.882812 27.863281 C 119.898438 26.207031 119.914062 24.550781 119.929688 22.847656 C 119.90625 20.367188 119.90625 20.367188 119.882812 17.832031 C 121.277344 9.710938 125.445312 6.546875 133.539062 7.023438 Z M 133.539062 7.023438 "/>
<path style=" stroke:none;fill-rule:nonzero;fill:rgb(92.941177%,94.901961%,94.117647%);fill-opacity:1;" d="M 89.761719 7.390625 C 96.5625 7.390625 103.359375 7.390625 110.363281 7.390625 C 109.878906 9.335938 109.394531 11.277344 108.890625 13.28125 C 106.949219 13.765625 105.007812 14.25 103.007812 14.75 C 103.039062 16.082031 103.074219 17.410156 103.109375 18.78125 C 103.148438 21.386719 103.148438 21.386719 103.191406 24.042969 C 103.222656 25.769531 103.257812 27.492188 103.292969 29.269531 C 103.007812 33.886719 103.007812 33.886719 100.0625 38.304688 C 98.605469 38.304688 97.148438 38.304688 95.648438 38.304688 C 95.648438 30.046875 95.648438 21.789062 95.648438 13.28125 C 93.222656 13.28125 90.792969 13.28125 88.292969 13.28125 C 88.777344 11.335938 89.261719 9.394531 89.761719 7.390625 Z M 89.761719 7.390625 "/>
<path style=" stroke:none;fill-rule:nonzero;fill:rgb(92.941177%,56.078434%,20.392157%);fill-opacity:1;" d="M 19.128906 35.359375 C 29.5625 36.394531 39.808594 38.027344 50.125 39.867188 C 51.679688 40.140625 53.234375 40.417969 54.835938 40.699219 C 58.628906 41.371094 62.425781 42.042969 66.21875 42.71875 C 65.734375 46.121094 65.246094 49.519531 64.746094 53.023438 C 62.804688 53.023438 60.863281 53.023438 58.859375 53.023438 C 58.859375 52.054688 58.859375 51.082031 58.859375 50.082031 C 56.964844 49.703125 55.070312 49.328125 53.117188 48.941406 C 45.609375 47.273438 38.664062 44.683594 31.546875 41.800781 C 30.34375 41.320312 29.136719 40.84375 27.898438 40.351562 C 24.972656 39.1875 22.050781 38.011719 19.128906 36.832031 C 19.128906 36.347656 19.128906 35.859375 19.128906 35.359375 Z M 19.128906 35.359375 "/>
<path style=" stroke:none;fill-rule:nonzero;fill:rgb(89.019608%,70.980394%,38.431373%);fill-opacity:1;" d="M 27.957031 13.28125 C 28.929688 13.28125 29.902344 13.28125 30.902344 13.28125 C 30.902344 16.195312 30.902344 19.109375 30.902344 22.113281 C 32.359375 22.113281 33.816406 22.113281 35.316406 22.113281 C 35.800781 21.140625 36.289062 20.167969 36.789062 19.167969 C 36.789062 20.140625 36.789062 21.109375 36.789062 22.113281 C 45.042969 22.113281 53.296875 22.113281 61.804688 22.113281 C 61.804688 19.195312 61.804688 16.28125 61.804688 13.28125 C 62.773438 13.28125 63.746094 13.28125 64.746094 13.28125 C 64.746094 16.195312 64.746094 19.109375 64.746094 22.113281 C 66.203125 22.597656 67.660156 23.082031 69.160156 23.582031 C 68.675781 24.554688 68.191406 25.527344 67.691406 26.527344 C 53.609375 26.527344 39.523438 26.527344 25.015625 26.527344 C 24.53125 25.070312 24.042969 23.613281 23.542969 22.113281 C 25 22.113281 26.457031 22.113281 27.957031 22.113281 C 27.957031 19.195312 27.957031 16.28125 27.957031 13.28125 Z M 27.957031 13.28125 "/>
<path style=" stroke:none;fill-rule:nonzero;fill:rgb(75.686276%,38.039216%,26.274511%);fill-opacity:1;" d="M 47.003906 10.191406 C 49.640625 10.21875 49.640625 10.21875 52.332031 10.242188 C 54.972656 10.261719 54.972656 10.261719 57.671875 10.285156 C 59.035156 10.300781 60.398438 10.316406 61.804688 10.335938 C 61.804688 14.222656 61.804688 18.109375 61.804688 22.113281 C 55.492188 22.113281 49.179688 22.113281 42.675781 22.113281 C 43.160156 19.195312 43.644531 16.28125 44.144531 13.28125 C 43.175781 12.792969 42.203125 12.308594 41.203125 11.808594 C 42.675781 10.335938 42.675781 10.335938 47.003906 10.191406 Z M 47.003906 10.191406 "/>
<path style=" stroke:none;fill-rule:nonzero;fill:rgb(95.294118%,57.647061%,21.176471%);fill-opacity:1;" d="M 30.902344 33.886719 C 44.984375 33.886719 59.066406 33.886719 73.574219 33.886719 C 73.089844 36.316406 72.605469 38.746094 72.105469 41.25 C 58.167969 40.375 44.605469 37.914062 30.902344 35.359375 C 30.902344 34.875 30.902344 34.386719 30.902344 33.886719 Z M 30.902344 33.886719 "/>
<path style=" stroke:none;fill-rule:nonzero;fill:rgb(91.37255%,97.647059%,94.901961%);fill-opacity:1;" d="M 113.308594 7.390625 C 114.765625 7.390625 116.21875 7.390625 117.722656 7.390625 C 117.722656 17.105469 117.722656 26.824219 117.722656 36.832031 C 115.777344 37.316406 113.835938 37.804688 111.835938 38.304688 C 111.792969 33.429688 111.765625 28.550781 111.742188 23.675781 C 111.730469 22.285156 111.71875 20.890625 111.707031 19.457031 C 111.703125 18.132812 111.695312 16.8125 111.691406 15.449219 C 111.683594 14.222656 111.675781 12.996094 111.667969 11.734375 C 111.835938 8.863281 111.835938 8.863281 113.308594 7.390625 Z M 113.308594 7.390625 "/>
<path style=" stroke:none;fill-rule:nonzero;fill:rgb(85.490197%,50.196081%,19.607843%);fill-opacity:1;" d="M 10.300781 8.863281 C 11.757812 8.863281 13.214844 8.863281 14.714844 8.863281 C 15.960938 16.34375 16.320312 23.359375 16.1875 30.945312 C 12.351562 32.3125 10.828125 32.636719 6.988281 31.035156 C 6.140625 30.519531 5.289062 30.003906 4.414062 29.472656 C 5.386719 29.472656 6.355469 29.472656 7.359375 29.472656 C 7.445312 28.601562 7.535156 27.730469 7.628906 26.832031 C 8.269531 20.773438 8.957031 14.816406 10.300781 8.863281 Z M 10.300781 8.863281 "/>
<path style=" stroke:none;fill-rule:nonzero;fill:rgb(42.745098%,29.803923%,19.607843%);fill-opacity:1;" d="M 17.660156 38.304688 C 26.6875 37.277344 32.957031 40.089844 41.167969 43.730469 C 46.964844 46.25 52.839844 48.171875 58.859375 50.082031 C 58.859375 51.050781 58.859375 52.023438 58.859375 53.023438 C 60.804688 53.023438 62.746094 53.023438 64.746094 53.023438 C 64.746094 51.082031 64.746094 49.136719 64.746094 47.136719 C 65.71875 47.136719 66.6875 47.136719 67.691406 47.136719 C 67.691406 45.679688 67.691406 44.222656 67.691406 42.71875 C 70.117188 42.71875 72.546875 42.71875 75.046875 42.71875 C 73.148438 44.746094 71.183594 46.707031 69.160156 48.609375 C 68.191406 48.609375 67.21875 48.609375 66.21875 48.609375 C 66.945312 50.792969 66.945312 50.792969 67.691406 53.023438 C 66.71875 53.996094 65.746094 54.96875 64.746094 55.96875 C 57.546875 53.617188 50.429688 51.15625 43.351562 48.453125 C 34.855469 45.363281 26.242188 42.605469 17.660156 39.777344 C 17.660156 39.289062 17.660156 38.804688 17.660156 38.304688 Z M 17.660156 38.304688 "/>
<path style=" stroke:none;fill-rule:nonzero;fill:rgb(97.647059%,82.745099%,42.745098%);fill-opacity:1;" d="M 20.601562 13.28125 C 21.574219 13.28125 22.542969 13.28125 23.542969 13.28125 C 24.03125 17.652344 24.515625 22.023438 25.015625 26.527344 C 39.097656 26.527344 53.179688 26.527344 67.691406 26.527344 C 68.660156 22.640625 69.632812 18.753906 70.632812 14.75 C 71.117188 14.75 71.605469 14.75 72.105469 14.75 C 72.105469 19.125 72.105469 23.496094 72.105469 28 C 55.109375 28 38.113281 28 20.601562 28 C 20.601562 23.140625 20.601562 18.285156 20.601562 13.28125 Z M 20.601562 13.28125 "/>
<path style=" stroke:none;fill-rule:nonzero;fill:rgb(34.901962%,29.803923%,25.098041%);fill-opacity:1;" d="M 13.242188 0.03125 C 35.582031 0.03125 57.917969 0.03125 80.933594 0.03125 C 80.449219 1.972656 79.960938 3.917969 79.460938 5.917969 C 79.460938 4.460938 79.460938 3.003906 79.460938 1.503906 C 58.582031 1.988281 37.699219 2.476562 16.1875 2.976562 C 16.1875 4.917969 16.1875 6.863281 16.1875 8.863281 C 14.246094 8.863281 12.300781 8.863281 10.300781 8.863281 C 9.816406 10.320312 9.328125 11.777344 8.828125 13.28125 C 8.828125 11.335938 8.828125 9.394531 8.828125 7.390625 C 9.800781 6.90625 10.773438 6.421875 11.773438 5.917969 C 12.257812 3.976562 12.742188 2.035156 13.242188 0.03125 Z M 13.242188 0.03125 "/>
<path style=" stroke:none;fill-rule:nonzero;fill:rgb(93.333334%,95.686275%,94.901961%);fill-opacity:1;" d="M 191.296875 13.28125 C 192.753906 13.28125 194.210938 13.28125 195.710938 13.28125 C 195.710938 21.050781 195.710938 28.824219 195.710938 36.832031 C 194.253906 36.832031 192.796875 36.832031 191.296875 36.832031 C 191.296875 29.058594 191.296875 21.289062 191.296875 13.28125 Z M 191.296875 13.28125 "/>
<path style=" stroke:none;fill-rule:nonzero;fill:rgb(42.352942%,29.803923%,20.392157%);fill-opacity:1;" d="M 7.359375 14.75 C 8.328125 15.238281 9.300781 15.722656 10.300781 16.222656 C 9.328125 20.59375 8.359375 24.96875 7.359375 29.472656 C 8.328125 29.957031 9.300781 30.445312 10.300781 30.945312 C 10.300781 31.914062 10.300781 32.886719 10.300781 33.886719 C 13.941406 35.34375 13.941406 35.34375 17.660156 36.832031 C 14.898438 37.753906 14.898438 37.753906 11.773438 38.304688 C 10.800781 37.332031 9.828125 36.359375 8.828125 35.359375 C 5.046875 34.40625 5.046875 34.40625 1.472656 33.886719 C 0.984375 32.429688 0.5 30.972656 0 29.472656 C 1.457031 28.5 2.914062 27.527344 4.414062 26.527344 C 5.015625 23.109375 5.511719 19.671875 5.886719 16.222656 C 6.371094 15.738281 6.855469 15.253906 7.359375 14.75 Z M 7.359375 14.75 "/>
<path style=" stroke:none;fill-rule:nonzero;fill:rgb(86.666667%,89.019608%,88.235295%);fill-opacity:1;" d="M 183.941406 7.390625 C 190.738281 7.390625 197.535156 7.390625 204.542969 7.390625 C 204.542969 8.847656 204.542969 10.304688 204.542969 11.808594 C 197.742188 11.808594 190.945312 11.808594 183.941406 11.808594 C 183.941406 10.351562 183.941406 8.894531 183.941406 7.390625 Z M 183.941406 7.390625 "/>
<path style=" stroke:none;fill-rule:nonzero;fill:rgb(85.09804%,48.235294%,33.333334%);fill-opacity:1;" d="M 39.730469 10.335938 C 40.703125 10.820312 41.671875 11.308594 42.675781 11.808594 C 44.53125 18.394531 44.53125 18.394531 42.675781 22.113281 C 40.730469 22.113281 38.789062 22.113281 36.789062 22.113281 C 36.605469 17.878906 36.605469 17.878906 36.789062 13.28125 C 37.757812 12.308594 38.730469 11.335938 39.730469 10.335938 Z M 39.730469 10.335938 "/>
<path style=" stroke:none;fill-rule:nonzero;fill:rgb(79.607844%,38.431373%,28.627452%);fill-opacity:1;" d="M 63.273438 10.335938 C 66.1875 10.335938 69.101562 10.335938 72.105469 10.335938 C 72.105469 11.308594 72.105469 12.277344 72.105469 13.28125 C 71.132812 13.28125 70.160156 13.28125 69.160156 13.28125 C 69.160156 16.195312 69.160156 19.109375 69.160156 22.113281 C 67.703125 22.113281 66.246094 22.113281 64.746094 22.113281 C 64.261719 18.226562 63.777344 14.339844 63.273438 10.335938 Z M 63.273438 10.335938 "/>
<path style=" stroke:none;fill-rule:nonzero;fill:rgb(91.764706%,94.901961%,93.333334%);fill-opacity:1;" d="M 182.46875 32.417969 C 181.984375 34.359375 181.496094 36.300781 180.996094 38.304688 C 176.625 38.304688 172.257812 38.304688 167.753906 38.304688 C 167.753906 37.332031 167.753906 36.359375 167.753906 35.359375 C 173.117188 31.785156 176.160156 32.179688 182.46875 32.417969 Z M 182.46875 32.417969 "/>
<path style=" stroke:none;fill-rule:nonzero;fill:rgb(69.803923%,40.000001%,19.607843%);fill-opacity:1;" d="M 10.300781 8.863281 C 11.757812 8.863281 13.214844 8.863281 14.714844 8.863281 C 15.820312 12.175781 15.820312 12.175781 16.1875 16.222656 C 13.335938 19.628906 13.335938 19.628906 10.300781 22.113281 C 8.667969 17.21875 9.058594 13.835938 10.300781 8.863281 Z M 10.300781 8.863281 "/>
<path style=" stroke:none;fill-rule:nonzero;fill:rgb(70.588237%,40.000001%,18.82353%);fill-opacity:1;" d="M 20.050781 31.589844 C 21.851562 31.8125 21.851562 31.8125 23.695312 32.042969 C 25.078125 32.226562 25.078125 32.226562 26.488281 32.417969 C 25.03125 34.359375 23.574219 36.300781 22.074219 38.304688 C 16.648438 37.570312 13.824219 36.683594 10.300781 32.417969 C 14.007812 30.5625 15.972656 31.0625 20.050781 31.589844 Z M 20.050781 31.589844 "/>
<path style=" stroke:none;fill-rule:nonzero;fill:rgb(81.568629%,38.431373%,30.19608%);fill-opacity:1;" d="M 55.917969 10.335938 C 57.859375 10.335938 59.800781 10.335938 61.804688 10.335938 C 61.804688 13.25 61.804688 16.164062 61.804688 19.167969 C 59.863281 19.652344 57.917969 20.140625 55.917969 20.640625 C 55.917969 17.238281 55.917969 13.839844 55.917969 10.335938 Z M 55.917969 10.335938 "/>
<path style=" stroke:none;fill-rule:nonzero;fill:rgb(84.705883%,35.686275%,31.764707%);fill-opacity:1;" d="M 45.617188 11.808594 C 46.101562 12.777344 46.589844 13.75 47.089844 14.75 C 48.058594 14.75 49.03125 14.75 50.03125 14.75 C 50.515625 13.78125 51.003906 12.808594 51.503906 11.808594 C 52.421875 14.566406 52.421875 14.566406 52.976562 17.695312 C 52.003906 18.667969 51.03125 19.640625 50.03125 20.640625 C 50.03125 19.667969 50.03125 18.695312 50.03125 17.695312 C 49.058594 17.695312 48.089844 17.695312 47.089844 17.695312 C 46.601562 19.152344 46.117188 20.609375 45.617188 22.113281 C 45.617188 18.710938 45.617188 15.3125 45.617188 11.808594 Z M 45.617188 11.808594 "/>
</g>
</svg>
